<?xml version="1.0" encoding="UTF-8" standalone="no"?>
<!-- Created with Inkscape (http://www.inkscape.org/) -->

<svg
   xmlns:dc="http://purl.org/dc/elements/1.1/"
   xmlns:cc="http://creativecommons.org/ns#"
   xmlns:rdf="http://www.w3.org/1999/02/22-rdf-syntax-ns#"
   xmlns:svg="http://www.w3.org/2000/svg"
   xmlns="http://www.w3.org/2000/svg"
   xmlns:sodipodi="http://sodipodi.sourceforge.net/DTD/sodipodi-0.dtd"
   xmlns:inkscape="http://www.inkscape.org/namespaces/inkscape"
   version="1.1"
   id="svg815"
   xml:space="preserve"
   width="793.70135"
   height="190.52"
   viewBox="0 0 793.70135 190.52"
   sodipodi:docname="LOGO_130 ANIVERSARIO.svg"
   inkscape:export-filename="C:\Users\Marcos\logo130.png"
   inkscape:export-xdpi="376.31"
   inkscape:export-ydpi="376.31"
   inkscape:version="0.92.3 (2405546, 2018-03-11)"><metadata
     id="metadata821"><rdf:RDF><cc:Work
         rdf:about=""><dc:format>image/svg+xml</dc:format><dc:type
           rdf:resource="http://purl.org/dc/dcmitype/StillImage" /><dc:title></dc:title></cc:Work></rdf:RDF></metadata><defs
     id="defs819"><clipPath
       clipPathUnits="userSpaceOnUse"
       id="clipPath831"><path
         d="M 0,142.89 H 595.276 V 0 H 0 Z"
         id="path829"
         inkscape:connector-curvature="0" /></clipPath></defs><sodipodi:namedview
     pagecolor="#ffffff"
     bordercolor="#666666"
     borderopacity="1"
     objecttolerance="10"
     gridtolerance="10"
     guidetolerance="10"
     inkscape:pageopacity="0"
     inkscape:pageshadow="2"
     inkscape:window-width="2560"
     inkscape:window-height="1377"
     id="namedview817"
     showgrid="false"
     inkscape:zoom="1.2825983"
     inkscape:cx="268.08104"
     inkscape:cy="151.18823"
     inkscape:window-x="-8"
     inkscape:window-y="-8"
     inkscape:window-maximized="1"
     inkscape:current-layer="g823" /><g
     id="g823"
     inkscape:groupmode="layer"
     inkscape:label="LOGO_130 ANIVERSARIO"
     transform="matrix(1.3333333,0,0,-1.3333333,0,190.52)"><g
       id="g825"><g
         id="g827"
         clip-path="url(#clipPath831)"><g
           id="g833"
           transform="translate(80.498,42.3634)"><path
             d="m 0,0 c -34.117,1.562 -60.995,18.748 -60.995,39.731 0,2.865 0.503,5.656 1.462,8.354 C -66.098,41.337 -69.86,33.47 -69.86,25.073 -69.86,1.039 -39.029,-18.64 0,-20.253 Z"
             style="fill:#61c8ec;fill-opacity:1;fill-rule:nonzero;stroke:none"
             id="path835"
             inkscape:connector-curvature="0" /></g><g
           id="g837"
           transform="translate(149.9917,90.9117)"><path
             d="m 0,0 c 1.059,-2.841 1.625,-5.79 1.625,-8.817 0,-20.777 -26.365,-37.828 -60.005,-39.679 v -20.278 c 38.701,1.827 69.163,21.403 69.163,45.299 C 10.783,-14.885 6.839,-6.854 0,0"
             style="fill:#61c8ec;fill-opacity:1;fill-rule:nonzero;stroke:none"
             id="path839"
             inkscape:connector-curvature="0" /></g><g
           id="g841"
           transform="translate(119.7539,86.5743)"><path
             d="M 0,0 C 0,14.201 -28.639,15.683 -28.639,15.683 V -15.681 C -28.639,-15.681 0,-14.195 0,0"
             style="fill:#4f87ce;fill-opacity:1;fill-rule:nonzero;stroke:none"
             id="path843"
             inkscape:connector-curvature="0" /></g><g
           id="g845"
           transform="translate(85.7036,120.7804)"><path
             d="m 0,0 c -32.32,0 -58.526,-15.48 -58.526,-34.575 0,-18.058 23.439,-32.882 53.32,-34.434 v 57.894 c 0,0 51.113,0.244 51.113,-23.215 0,-19.507 -39.999,-23.705 -39.999,-23.705 v -10.938 c 29.548,1.751 52.614,16.479 52.614,34.398 C 58.522,-15.48 32.32,0 0,0"
             style="fill:#4f87ce;fill-opacity:1;fill-rule:nonzero;stroke:none"
             id="path847"
             inkscape:connector-curvature="0" /></g><g
           id="g849"
           transform="translate(201.1934,99.2389)"><path
             d="m 0,0 c 0,2.995 -0.913,5.117 -2.736,6.368 -1.825,1.252 -4.292,1.878 -7.4,1.878 h -6.285 V -8.378 h 5.812 c 1.395,0 2.736,0.145 4.02,0.435 1.284,0.29 2.421,0.77 3.413,1.442 0.99,0.67 1.767,1.541 2.331,2.613 C -0.282,-2.815 0,-1.519 0,0 m 7.704,0.339 c 0,-2.524 -0.417,-4.73 -1.25,-6.623 -0.834,-1.892 -2.017,-3.469 -3.548,-4.73 -1.532,-1.262 -3.345,-2.208 -5.44,-2.839 -2.095,-0.631 -4.382,-0.945 -6.86,-0.945 h -7.027 v -18.719 h -8.11 v 48.655 h 16.016 c 2.793,0 5.204,-0.405 7.232,-1.215 C 0.744,13.111 2.422,12.019 3.75,10.645 5.079,9.27 6.07,7.694 6.724,5.915 7.376,4.134 7.704,2.275 7.704,0.339"
             style="fill:#4f87ce;fill-opacity:1;fill-rule:nonzero;stroke:none"
             id="path851"
             inkscape:connector-curvature="0" /></g><g
           id="g853"
           transform="translate(242.0435,68.4249)"><path
             d="m 0,0 c -2.636,-2.567 -6.477,-3.852 -11.522,-3.852 -5.136,0 -8.999,1.294 -11.589,3.886 -2.592,2.59 -3.886,6.385 -3.886,11.387 v 34.531 h 8.109 V 12.705 c 0,-1.352 0.101,-2.636 0.305,-3.852 0.203,-1.217 0.574,-2.298 1.115,-3.244 0.54,-0.946 1.294,-1.689 2.263,-2.23 0.969,-0.541 2.197,-0.811 3.683,-0.811 1.487,0 2.714,0.281 3.684,0.845 0.967,0.563 1.722,1.306 2.263,2.23 0.54,0.922 0.912,1.993 1.116,3.21 0.202,1.216 0.304,2.477 0.304,3.784 V 45.952 H 3.954 V 11.421 C 3.954,6.374 2.635,2.568 0,0"
             style="fill:#4f87ce;fill-opacity:1;fill-rule:nonzero;stroke:none"
             id="path855"
             inkscape:connector-curvature="0" /></g><g
           id="g857"
           transform="translate(277.5552,100.1188)"><path
             d="m 0,0 c 0,2.478 -0.758,4.403 -2.273,5.778 -1.517,1.373 -4.151,2.06 -7.906,2.06 h -5.972 V -8.448 h 5.972 c 1.221,0 2.443,0.136 3.664,0.406 1.221,0.271 2.318,0.732 3.291,1.386 0.973,0.653 1.753,1.52 2.341,2.601 C -0.295,-2.974 0,-1.622 0,0 m 8.109,1.014 c 0,-2.884 -0.764,-5.43 -2.293,-7.637 -1.528,-2.208 -3.709,-3.694 -6.54,-4.46 1.662,-0.36 3.034,-0.945 4.113,-1.757 1.078,-0.811 1.933,-1.78 2.562,-2.906 0.629,-1.126 1.068,-2.388 1.315,-3.784 0.247,-1.397 0.37,-2.862 0.37,-4.392 v -10.475 h -7.839 v 9.123 c 0,1.756 -0.148,3.322 -0.442,4.697 -0.293,1.373 -0.814,2.534 -1.561,3.479 -0.746,0.947 -1.742,1.657 -2.985,2.129 -1.245,0.473 -2.839,0.71 -4.784,0.71 h -6.108 v -20.138 h -8.109 v 48.655 h 17.061 c 2.157,0 4.17,-0.247 6.035,-0.742 C 0.77,13.02 2.377,12.231 3.727,11.15 5.075,10.069 6.143,8.694 6.929,7.028 7.715,5.361 8.109,3.355 8.109,1.014"
             style="fill:#4f87ce;fill-opacity:1;fill-rule:nonzero;stroke:none"
             id="path859"
             inkscape:connector-curvature="0" /></g><path
           d="m 291.882,114.377 h 8.109 V 65.722 h -8.109 z m 1.554,2.974 H 288.3 l 7.839,9.934 h 8.043 z"
           style="fill:#4f87ce;fill-opacity:1;fill-rule:nonzero;stroke:none"
           id="path861"
           inkscape:connector-curvature="0" /><g
           id="g863"
           transform="translate(344.1865,79.5074)"><path
             d="m 0,0 c 0,-2.703 -0.541,-5 -1.622,-6.893 -1.081,-1.892 -2.524,-3.436 -4.324,-4.629 -1.803,-1.193 -3.842,-2.061 -6.117,-2.602 -2.276,-0.54 -4.606,-0.81 -6.994,-0.81 -2.027,0 -4.247,0.259 -6.656,0.776 -2.411,0.518 -4.653,1.43 -6.725,2.738 -2.072,1.306 -3.806,3.074 -5.203,5.304 -1.397,2.231 -2.094,5.079 -2.094,8.549 h 8.109 c 0,-2.073 0.338,-3.829 1.014,-5.271 0.675,-1.442 1.598,-2.613 2.77,-3.515 1.171,-0.9 2.556,-1.553 4.156,-1.959 1.599,-0.406 3.345,-0.608 5.238,-0.608 1.261,0 2.51,0.146 3.75,0.439 1.239,0.293 2.342,0.766 3.311,1.419 0.969,0.653 1.757,1.498 2.366,2.534 0.608,1.036 0.912,2.298 0.912,3.785 0,1.531 -0.338,2.771 -1.014,3.716 -0.676,0.947 -1.621,1.724 -2.838,2.332 -1.217,0.609 -2.659,1.126 -4.325,1.554 -1.667,0.428 -3.492,0.89 -5.474,1.386 -1.937,0.495 -3.876,1.024 -5.811,1.588 -1.938,0.563 -3.683,1.329 -5.238,2.297 -1.554,0.968 -2.816,2.207 -3.784,3.718 -0.97,1.508 -1.453,3.456 -1.453,5.844 0,2.613 0.518,4.821 1.554,6.623 1.036,1.802 2.399,3.278 4.089,4.427 1.689,1.149 3.615,1.981 5.777,2.5 2.163,0.517 4.348,0.778 6.556,0.778 2.477,0 4.82,-0.271 7.028,-0.812 2.207,-0.541 4.145,-1.408 5.812,-2.602 1.666,-1.194 3.006,-2.77 4.02,-4.73 1.014,-1.96 1.588,-4.359 1.724,-7.197 H -9.19 c 0,1.666 -0.293,3.097 -0.878,4.291 -0.586,1.194 -1.375,2.162 -2.366,2.906 -0.992,0.744 -2.152,1.284 -3.481,1.622 -1.329,0.338 -2.715,0.507 -4.155,0.507 -1.127,0 -2.298,-0.113 -3.514,-0.338 -1.217,-0.226 -2.332,-0.62 -3.346,-1.183 -1.013,-0.564 -1.836,-1.307 -2.466,-2.23 -0.631,-0.924 -0.947,-2.084 -0.947,-3.481 0,-1.531 0.451,-2.77 1.352,-3.715 0.901,-0.947 2.072,-1.724 3.514,-2.332 1.442,-0.609 3.064,-1.127 4.866,-1.555 1.801,-0.429 3.649,-0.89 5.541,-1.385 1.982,-0.496 3.886,-1.047 5.711,-1.656 1.825,-0.608 3.422,-1.419 4.797,-2.433 C -3.188,8.684 -2.085,7.4 -1.25,5.846 -0.417,4.291 0,2.342 0,0"
             style="fill:#4f87ce;fill-opacity:1;fill-rule:nonzero;stroke:none"
             id="path865"
             inkscape:connector-curvature="0" /></g><path
           d="m 348.85,114.377 h 8.108 V 65.722 h -8.108 z"
           style="fill:#4f87ce;fill-opacity:1;fill-rule:nonzero;stroke:none"
           id="path867"
           inkscape:connector-curvature="0" /><g
           id="g869"
           transform="translate(409.9385,65.7218)"><path
             d="m 0,0 v 33.316 c 0,1.351 -0.102,2.635 -0.305,3.851 -0.201,1.217 -0.586,2.287 -1.148,3.21 -0.564,0.924 -1.318,1.656 -2.263,2.197 -0.947,0.541 -2.164,0.811 -3.649,0.811 -1.487,0 -2.716,-0.27 -3.684,-0.811 -0.97,-0.541 -1.723,-1.273 -2.264,-2.197 -0.541,-0.923 -0.913,-1.993 -1.115,-3.21 -0.202,-1.216 -0.303,-2.5 -0.303,-3.851 V 0 h -8.11 v 33.316 c 0,1.351 -0.101,2.635 -0.304,3.851 -0.203,1.217 -0.585,2.287 -1.149,3.21 -0.564,0.924 -1.318,1.656 -2.264,2.197 -0.946,0.541 -2.162,0.811 -3.649,0.811 -1.486,0 -2.715,-0.27 -3.683,-0.811 -0.969,-0.541 -1.723,-1.273 -2.264,-2.197 -0.54,-0.923 -0.912,-1.993 -1.115,-3.21 -0.203,-1.216 -0.304,-2.5 -0.304,-3.851 V 0 h -8.109 v 34.532 c 0,5.045 1.318,8.853 3.953,11.421 2.635,2.568 6.476,3.852 11.522,3.852 2.568,0 4.82,-0.429 6.758,-1.284 1.936,-0.856 3.49,-2.141 4.663,-3.853 1.171,1.712 2.725,2.997 4.663,3.853 1.935,0.855 4.189,1.284 6.758,1.284 5.044,0 8.886,-1.284 11.521,-3.852 2.636,-2.568 3.953,-6.376 3.953,-11.421 L 8.109,0 Z"
             style="fill:#4f87ce;fill-opacity:1;fill-rule:nonzero;stroke:none"
             id="path871"
             inkscape:connector-curvature="0" /></g><g
           id="g873"
           transform="translate(448.1875,98.9698)"><path
             d="m 0,0 c 0,1.352 -0.102,2.635 -0.304,3.852 -0.203,1.216 -0.575,2.297 -1.115,3.244 -0.541,0.946 -1.295,1.689 -2.265,2.23 -0.968,0.541 -2.195,0.811 -3.682,0.811 -1.487,0 -2.715,-0.283 -3.683,-0.845 -0.969,-0.564 -1.723,-1.307 -2.264,-2.23 -0.541,-0.924 -0.913,-1.994 -1.115,-3.21 -0.203,-1.217 -0.303,-2.477 -0.303,-3.784 V -5.676 H 0 Z m 0,-33.248 v 21.152 h -14.731 v -21.152 h -8.11 V 1.284 c 0,5.045 1.318,8.853 3.952,11.421 2.637,2.568 6.477,3.852 11.523,3.852 5.136,0 8.999,-1.296 11.59,-3.886 C 6.813,10.08 8.109,6.285 8.109,1.284 v -34.532 z"
             style="fill:#4f87ce;fill-opacity:1;fill-rule:nonzero;stroke:none"
             id="path875"
             inkscape:connector-curvature="0" /></g><g
           id="g877"
           transform="translate(198.5249,35.2833)"><path
             d="m 0,0 c 0,-1.446 -0.306,-2.668 -0.918,-3.669 -0.611,-1.001 -1.409,-1.816 -2.391,-2.446 -0.982,-0.631 -2.093,-1.093 -3.334,-1.389 -1.242,-0.297 -2.474,-0.445 -3.697,-0.445 -3.78,0 -6.652,0.842 -8.616,2.529 -1.964,1.686 -2.946,4.326 -2.946,7.921 h 1.112 c 0,-3.188 0.907,-5.541 2.724,-7.06 1.815,-1.519 4.392,-2.279 7.726,-2.279 1.036,0 2.103,0.12 3.197,0.361 1.092,0.241 2.084,0.629 2.974,1.168 0.888,0.537 1.62,1.232 2.196,2.084 0.573,0.853 0.86,1.89 0.86,3.114 0,1.259 -0.287,2.277 -0.86,3.056 -0.576,0.779 -1.317,1.418 -2.225,1.917 -0.907,0.501 -1.955,0.9 -3.14,1.197 -1.187,0.295 -2.391,0.591 -3.613,0.889 -1.186,0.295 -2.363,0.583 -3.53,0.862 -1.168,0.278 -2.224,0.684 -3.169,1.222 -0.944,0.537 -1.704,1.251 -2.279,2.141 -0.575,0.889 -0.861,2.094 -0.861,3.612 0,0.779 0.166,1.593 0.5,2.446 0.334,0.853 0.889,1.63 1.667,2.335 0.778,0.704 1.779,1.279 3.002,1.724 1.224,0.444 2.724,0.666 4.503,0.666 3.187,0 5.707,-0.722 7.559,-2.167 1.853,-1.445 2.78,-3.762 2.78,-6.949 H -1.89 c 0,1.445 -0.222,2.669 -0.668,3.668 -0.444,1.002 -1.075,1.826 -1.89,2.474 -0.815,0.649 -1.788,1.121 -2.918,1.417 -1.131,0.297 -2.381,0.446 -3.752,0.446 -2.001,0 -3.577,-0.27 -4.726,-0.806 -1.148,-0.538 -2.001,-1.159 -2.555,-1.862 -0.557,-0.704 -0.909,-1.381 -1.058,-2.03 -0.148,-0.648 -0.222,-1.102 -0.222,-1.362 0,-1.409 0.352,-2.519 1.056,-3.335 0.704,-0.814 1.576,-1.454 2.613,-1.917 1.037,-0.465 2.169,-0.825 3.391,-1.084 1.223,-0.26 2.371,-0.519 3.447,-0.779 1.111,-0.297 2.214,-0.603 3.306,-0.917 1.094,-0.316 2.075,-0.75 2.947,-1.306 0.87,-0.555 1.574,-1.26 2.112,-2.112 C -0.269,2.481 0,1.37 0,0"
             style="fill:#4f87ce;fill-opacity:1;fill-rule:nonzero;stroke:none"
             id="path879"
             inkscape:connector-curvature="0" /></g><g
           id="g881"
           transform="translate(239.5474,54.1554)"><path
             d="m 0,0 c -1.743,1.314 -3.834,1.973 -6.281,1.973 -2.112,0 -3.938,-0.389 -5.476,-1.167 -1.539,-0.78 -2.807,-1.834 -3.806,-3.17 -1.002,-1.333 -1.744,-2.871 -2.224,-4.614 -0.483,-1.741 -0.723,-3.576 -0.723,-5.501 V -13.48 L 3.391,-5.531 C 2.872,-3.16 1.742,-1.316 0,0 M 3.448,-20.735 C 2.817,-22.013 2.001,-23.107 1.001,-24.014 0,-24.923 -1.177,-25.618 -2.529,-26.1 c -1.354,-0.48 -2.826,-0.721 -4.419,-0.721 -2.076,0 -3.901,0.388 -5.475,1.166 -1.577,0.779 -2.891,1.827 -3.948,3.141 -1.055,1.315 -1.861,2.835 -2.418,4.559 -0.556,1.724 -0.834,3.547 -0.834,5.476 0,2.074 0.269,4.057 0.807,5.947 0.536,1.89 1.352,3.549 2.445,4.974 1.093,1.427 2.475,2.558 4.142,3.392 1.667,0.833 3.649,1.25 5.948,1.25 1.408,0 2.741,-0.222 4.002,-0.666 C -1.02,1.973 0.093,1.353 1.056,0.555 2.02,-0.242 2.808,-1.215 3.42,-2.364 4.03,-3.512 4.429,-4.809 4.614,-6.254 l -23.013,-8.394 c 0.185,-1.52 0.574,-2.946 1.167,-4.28 0.592,-1.335 1.362,-2.502 2.306,-3.503 0.946,-1 2.086,-1.797 3.42,-2.389 1.334,-0.594 2.854,-0.89 4.558,-0.89 1.407,0 2.724,0.213 3.946,0.639 1.224,0.426 2.297,1.047 3.225,1.862 0.925,0.815 1.676,1.787 2.251,2.919 0.575,1.129 0.917,2.418 1.028,3.863 h 1.112 c -0.148,-1.594 -0.538,-3.029 -1.166,-4.308"
             style="fill:#4f87ce;fill-opacity:1;fill-rule:nonzero;stroke:none"
             id="path883"
             inkscape:connector-curvature="0" /></g><g
           id="g885"
           transform="translate(289.4658,47.9015)"><path
             d="m 0,0 c 0,1.148 -0.287,2.223 -0.862,3.225 -0.575,0.999 -1.325,1.87 -2.251,2.611 -0.928,0.741 -1.973,1.325 -3.141,1.752 -1.167,0.426 -2.345,0.639 -3.53,0.639 -2.298,0 -4.225,-0.437 -5.781,-1.307 -1.557,-0.87 -2.806,-2.001 -3.752,-3.391 -0.945,-1.389 -1.632,-2.945 -2.057,-4.669 -0.426,-1.722 -0.639,-3.419 -0.639,-5.086 0,-1.743 0.25,-3.41 0.751,-5.003 0.5,-1.594 1.231,-3.002 2.195,-4.224 0.963,-1.223 2.168,-2.196 3.613,-2.919 1.445,-0.723 3.113,-1.084 5.003,-1.084 1.408,0 2.742,0.213 4.002,0.639 1.261,0.426 2.371,1.046 3.336,1.862 0.963,0.815 1.722,1.787 2.279,2.919 0.556,1.129 0.834,2.418 0.834,3.863 z m -2.029,-29.517 c -2.095,-1.852 -5.013,-2.78 -8.756,-2.78 -1.444,0 -2.817,0.167 -4.113,0.5 -1.298,0.333 -2.446,0.861 -3.446,1.585 -1.001,0.722 -1.798,1.658 -2.391,2.808 -0.592,1.148 -0.909,2.519 -0.945,4.112 h 1.113 c 0.035,-1.407 0.323,-2.612 0.86,-3.612 0.538,-1.001 1.251,-1.817 2.141,-2.446 0.89,-0.63 1.908,-1.093 3.057,-1.391 1.148,-0.295 2.371,-0.444 3.668,-0.444 3.484,0 6.162,0.833 8.034,2.5 1.87,1.668 2.807,4.282 2.807,7.839 v 6.448 c -0.927,-1.963 -2.289,-3.484 -4.086,-4.558 -1.798,-1.073 -3.919,-1.611 -6.365,-1.611 -2.038,0 -3.844,0.38 -5.421,1.138 -1.574,0.76 -2.898,1.798 -3.974,3.114 -1.075,1.314 -1.889,2.835 -2.446,4.558 -0.555,1.723 -0.833,3.566 -0.833,5.531 0,2.075 0.269,4.048 0.806,5.919 0.536,1.871 1.353,3.521 2.445,4.948 1.094,1.426 2.475,2.567 4.143,3.42 1.668,0.851 3.649,1.277 5.947,1.277 2.075,0 3.984,-0.473 5.726,-1.416 C -2.318,6.976 -0.964,5.576 0,3.725 v 4.947 h 1.111 v -29.518 c 0,-3.927 -1.048,-6.818 -3.14,-8.671"
             style="fill:#4f87ce;fill-opacity:1;fill-rule:nonzero;stroke:none"
             id="path887"
             inkscape:connector-curvature="0" /></g><g
           id="g889"
           transform="translate(334.7686,28.0001)"><path
             d="M 0,0 V 7.061 C -0.63,4.54 -1.89,2.622 -3.779,1.307 c -1.89,-1.315 -4.094,-1.973 -6.617,-1.973 -3.148,0 -5.631,0.925 -7.447,2.779 -1.817,1.853 -2.723,4.354 -2.723,7.503 v 18.957 h 1.11 V 9.784 c 0,-2.889 0.788,-5.169 2.363,-6.838 1.574,-1.667 3.809,-2.501 6.697,-2.501 1.707,0 3.207,0.325 4.503,0.973 1.298,0.648 2.381,1.519 3.252,2.613 0.872,1.092 1.529,2.363 1.974,3.807 C -0.223,9.283 0,10.804 0,12.396 V 28.573 H 1.113 V 0 Z"
             style="fill:#4f87ce;fill-opacity:1;fill-rule:nonzero;stroke:none"
             id="path891"
             inkscape:connector-curvature="0" /></g><g
           id="g893"
           transform="translate(371.4561,56.1281)"><path
             d="m 0,0 c -1.704,0 -3.204,-0.324 -4.502,-0.973 -1.299,-0.649 -2.382,-1.52 -3.253,-2.613 -0.87,-1.094 -1.528,-2.362 -1.974,-3.807 -0.444,-1.446 -0.665,-2.964 -0.665,-4.558 v -16.177 h -1.113 V 0.445 h 1.113 v -7.059 c 0.628,2.556 1.88,4.482 3.751,5.78 1.872,1.297 4.085,1.945 6.643,1.945 h 0.891 z"
             style="fill:#4f87ce;fill-opacity:1;fill-rule:nonzero;stroke:none"
             id="path895"
             inkscape:connector-curvature="0" /></g><g
           id="g897"
           transform="translate(412.2578,42.2863)"><path
             d="m 0,0 c 0,1.78 -0.25,3.503 -0.751,5.17 -0.5,1.669 -1.249,3.141 -2.251,4.42 -1.001,1.278 -2.234,2.306 -3.697,3.085 -1.464,0.778 -3.14,1.167 -5.03,1.167 -1.928,0 -3.623,-0.389 -5.086,-1.167 -1.465,-0.779 -2.697,-1.807 -3.698,-3.085 -1,-1.279 -1.751,-2.751 -2.251,-4.42 -0.499,-1.667 -0.75,-3.39 -0.75,-5.17 0,-1.815 0.251,-3.557 0.75,-5.225 0.5,-1.668 1.251,-3.14 2.251,-4.42 1.001,-1.278 2.233,-2.297 3.698,-3.056 1.463,-0.76 3.158,-1.14 5.086,-1.14 1.89,0 3.566,0.38 5.03,1.14 1.463,0.759 2.696,1.778 3.697,3.056 1.002,1.28 1.751,2.752 2.251,4.42 C -0.25,-3.557 0,-1.815 0,0 m 1.111,0 c 0,-1.964 -0.278,-3.845 -0.833,-5.642 -0.555,-1.798 -1.381,-3.39 -2.473,-4.78 -1.094,-1.389 -2.439,-2.492 -4.032,-3.308 -1.592,-0.814 -3.445,-1.222 -5.557,-1.222 -2.075,0 -3.92,0.408 -5.531,1.222 -1.613,0.816 -2.956,1.919 -4.031,3.308 -1.075,1.39 -1.889,2.982 -2.445,4.78 -0.557,1.797 -0.835,3.678 -0.835,5.642 0,1.928 0.278,3.8 0.835,5.615 0.556,1.816 1.379,3.409 2.474,4.781 1.091,1.37 2.434,2.473 4.029,3.307 1.593,0.833 3.447,1.25 5.559,1.25 2.076,0 3.91,-0.417 5.502,-1.25 1.593,-0.834 2.938,-1.937 4.032,-3.307 C -1.103,9.024 -0.277,7.431 0.278,5.615 0.833,3.8 1.111,1.928 1.111,0"
             style="fill:#4f87ce;fill-opacity:1;fill-rule:nonzero;stroke:none"
             id="path899"
             inkscape:connector-curvature="0" /></g><g
           id="g901"
           transform="translate(456.3369,35.2833)"><path
             d="m 0,0 c 0,-1.446 -0.304,-2.668 -0.918,-3.669 -0.609,-1.001 -1.407,-1.816 -2.389,-2.446 -0.982,-0.631 -2.092,-1.093 -3.336,-1.389 -1.242,-0.297 -2.471,-0.445 -3.695,-0.445 -3.779,0 -6.651,0.842 -8.617,2.529 -1.964,1.686 -2.945,4.326 -2.945,7.921 h 1.111 c 0,-3.188 0.908,-5.541 2.724,-7.06 1.815,-1.519 4.391,-2.279 7.727,-2.279 1.036,0 2.103,0.12 3.195,0.361 1.094,0.241 2.086,0.629 2.974,1.168 0.891,0.537 1.621,1.232 2.196,2.084 0.575,0.853 0.863,1.89 0.863,3.114 0,1.259 -0.288,2.277 -0.863,3.056 -0.575,0.779 -1.314,1.418 -2.223,1.917 -0.908,0.501 -1.954,0.9 -3.14,1.197 -1.186,0.295 -2.391,0.591 -3.614,0.889 -1.185,0.295 -2.363,0.583 -3.53,0.862 -1.167,0.278 -2.222,0.684 -3.168,1.222 -0.946,0.537 -1.706,1.251 -2.279,2.141 -0.575,0.889 -0.862,2.094 -0.862,3.612 0,0.779 0.167,1.593 0.5,2.446 0.334,0.853 0.891,1.63 1.668,2.335 0.778,0.704 1.778,1.279 3.002,1.724 1.223,0.444 2.723,0.666 4.502,0.666 3.188,0 5.706,-0.722 7.56,-2.167 1.853,-1.445 2.781,-3.762 2.781,-6.949 H -1.89 c 0,1.445 -0.222,2.669 -0.666,3.668 -0.444,1.002 -1.075,1.826 -1.89,2.474 -0.817,0.649 -1.788,1.121 -2.917,1.417 -1.132,0.297 -2.383,0.446 -3.754,0.446 -2.001,0 -3.577,-0.27 -4.725,-0.806 -1.147,-0.538 -2.001,-1.159 -2.557,-1.862 -0.556,-0.704 -0.909,-1.381 -1.057,-2.03 -0.147,-0.648 -0.221,-1.102 -0.221,-1.362 0,-1.409 0.351,-2.519 1.056,-3.335 0.704,-0.814 1.576,-1.454 2.612,-1.917 1.037,-0.465 2.168,-0.825 3.392,-1.084 1.222,-0.26 2.372,-0.519 3.445,-0.779 1.113,-0.297 2.215,-0.603 3.309,-0.917 1.092,-0.316 2.075,-0.75 2.946,-1.306 0.87,-0.555 1.574,-1.26 2.112,-2.112 C -0.269,2.481 0,1.37 0,0"
             style="fill:#4f87ce;fill-opacity:1;fill-rule:nonzero;stroke:none"
             id="path903"
             inkscape:connector-curvature="0" /></g><g
           id="g905"
           transform="translate(474.0869,115.8981)"><path
             d="M 0,0 V -88.136"
             style="fill:none;stroke:#4f87ce;stroke-width:3.03900003;stroke-linecap:butt;stroke-linejoin:miter;stroke-miterlimit:10;stroke-dasharray:none;stroke-opacity:1"
             id="path907"
             inkscape:connector-curvature="0" /></g><g
           id="g909"
           transform="translate(574.3193,84.9249)"><path
             d="m 0,0 c 0,2.058 -0.149,4.345 -0.445,6.864 -0.299,2.518 -0.895,4.886 -1.789,7.11 -0.893,2.219 -2.166,4.087 -3.817,5.603 -1.653,1.517 -3.806,2.275 -6.46,2.275 -2.76,0 -4.968,-0.744 -6.621,-2.232 -1.653,-1.491 -2.923,-3.346 -3.817,-5.565 -0.895,-2.222 -1.49,-4.59 -1.787,-7.11 -0.3,-2.517 -0.448,-4.832 -0.448,-6.945 0,-2.06 0.148,-4.347 0.448,-6.864 0.297,-2.52 0.892,-4.89 1.787,-7.11 0.894,-2.221 2.164,-4.088 3.817,-5.605 1.653,-1.517 3.831,-2.275 6.54,-2.275 2.709,0 4.888,0.744 6.541,2.234 1.651,1.489 2.924,3.344 3.817,5.565 0.894,2.22 1.49,4.603 1.789,7.15 C -0.149,-4.36 0,-2.06 0,0 m 10.318,0 c 0,-3.522 -0.434,-7.069 -1.3,-10.643 -0.866,-3.574 -2.235,-6.811 -4.101,-9.708 -1.87,-2.898 -4.24,-5.268 -7.111,-7.109 -2.87,-1.84 -6.334,-2.762 -10.398,-2.762 -4.008,0 -7.461,0.922 -10.357,2.762 -2.899,1.841 -5.267,4.211 -7.108,7.109 -1.843,2.897 -3.198,6.134 -4.063,9.708 -0.866,3.574 -1.299,7.121 -1.299,10.643 0,3.465 0.433,6.999 1.299,10.602 0.865,3.6 2.22,6.85 4.063,9.748 1.841,2.897 4.197,5.267 7.068,7.108 2.87,1.842 6.336,2.762 10.397,2.762 4.064,0 7.528,-0.908 10.398,-2.722 2.871,-1.814 5.241,-4.17 7.111,-7.067 C 6.783,17.533 8.152,14.285 9.018,10.683 9.884,7.08 10.318,3.519 10.318,0"
             style="fill:#4f87ce;fill-opacity:1;fill-rule:nonzero;stroke:none"
             id="path911"
             inkscape:connector-curvature="0" /></g><g
           id="g913"
           transform="translate(551.0967,73.0626)"><path
             d="m 0,0 c 0,-2.951 -0.631,-5.54 -1.892,-7.766 -1.259,-2.225 -2.909,-4.077 -4.947,-5.551 -2.04,-1.477 -4.346,-2.588 -6.919,-3.339 -2.576,-0.75 -5.206,-1.127 -7.886,-1.127 -3.328,0 -6.452,0.443 -9.376,1.329 -2.923,0.884 -5.443,2.238 -7.562,4.062 -2.12,1.824 -3.742,4.091 -4.869,6.799 -1.126,2.709 -1.528,5.886 -1.206,9.535 h 10.218 c -0.215,-4.13 0.736,-7.361 2.858,-9.695 2.118,-2.333 5.269,-3.5 9.453,-3.5 1.502,0 2.924,0.227 4.265,0.684 1.342,0.454 2.521,1.099 3.54,1.93 1.019,0.831 1.811,1.877 2.375,3.139 0.563,1.26 0.844,2.696 0.844,4.306 0,3.216 -1.006,5.592 -3.017,7.119 -2.01,1.53 -4.521,2.293 -7.523,2.293 h -1.611 v 7.002 h 1.611 c 1.288,0 2.547,0.16 3.781,0.483 1.234,0.32 2.334,0.831 3.3,1.527 0.965,0.698 1.742,1.569 2.333,2.616 0.59,1.046 0.885,2.293 0.885,3.742 0,1.394 -0.309,2.601 -0.926,3.62 -0.616,1.019 -1.436,1.877 -2.453,2.576 -1.021,0.696 -2.147,1.206 -3.38,1.529 -1.236,0.321 -2.467,0.481 -3.702,0.481 -1.664,0 -3.191,-0.268 -4.586,-0.804 -1.394,-0.536 -2.602,-1.287 -3.622,-2.253 -1.018,-0.966 -1.797,-2.133 -2.333,-3.5 -0.536,-1.368 -0.751,-2.91 -0.643,-4.628 h -10.058 c 0,3.272 0.548,6.129 1.65,8.571 1.098,2.441 2.6,4.466 4.505,6.075 1.904,1.61 4.17,2.817 6.799,3.62 2.629,0.806 5.497,1.207 8.611,1.207 2.143,0 4.396,-0.295 6.759,-0.884 2.359,-0.591 4.517,-1.489 6.478,-2.696 1.958,-1.207 3.565,-2.736 4.827,-4.586 1.259,-1.852 1.892,-4.037 1.892,-6.558 0,-1.234 -0.162,-2.576 -0.485,-4.023 -0.321,-1.449 -0.844,-2.803 -1.568,-4.063 -0.725,-1.261 -1.677,-2.348 -2.857,-3.259 -1.18,-0.913 -2.602,-1.476 -4.264,-1.69 1.769,-0.162 3.326,-0.698 4.668,-1.609 1.338,-0.914 2.453,-2.053 3.34,-3.42 C -1.81,7.925 -1.141,6.423 -0.684,4.788 -0.229,3.151 0,1.555 0,0"
             style="fill:#61c8ec;fill-opacity:1;fill-rule:nonzero;stroke:none"
             id="path915"
             inkscape:connector-curvature="0" /></g><g
           id="g917"
           transform="translate(527.5137,41.0275)"><path
             d="m 0,0 c 0,0.68 -0.177,1.319 -0.529,1.919 -0.353,0.599 -0.812,1.114 -1.376,1.549 -0.566,0.434 -1.2,0.775 -1.907,1.021 -0.706,0.247 -1.412,0.37 -2.117,0.37 -1.365,0 -2.517,-0.253 -3.459,-0.756 -0.941,-0.505 -1.7,-1.169 -2.276,-1.991 -0.576,-0.821 -0.988,-1.743 -1.235,-2.764 -0.247,-1.021 -0.371,-2.037 -0.371,-3.046 0,-1.057 0.147,-2.067 0.442,-3.029 0.294,-0.962 0.735,-1.807 1.323,-2.535 0.588,-0.728 1.317,-1.303 2.188,-1.725 0.871,-0.423 1.882,-0.634 3.036,-0.634 0.822,0 1.61,0.122 2.364,0.369 0.752,0.246 1.423,0.61 2.012,1.092 0.587,0.481 1.051,1.062 1.393,1.743 C -0.171,-7.736 0,-6.973 0,-6.128 Z m 0,-12.469 v 3.177 c -0.612,-1.153 -1.471,-2.042 -2.576,-2.665 -1.107,-0.623 -2.4,-0.935 -3.882,-0.935 -1.318,0 -2.488,0.242 -3.512,0.723 -1.023,0.482 -1.888,1.142 -2.593,1.977 -0.707,0.835 -1.248,1.805 -1.625,2.912 -0.375,1.105 -0.564,2.293 -0.564,3.564 0,1.317 0.177,2.57 0.529,3.758 0.354,1.188 0.895,2.235 1.624,3.141 0.729,0.906 1.629,1.624 2.7,2.153 1.07,0.529 2.335,0.794 3.794,0.794 1.27,0 2.453,-0.276 3.546,-0.829 C -1.465,4.747 -0.612,3.942 0,2.883 v 2.824 h 1.482 v -18.176 z"
             style="fill:#4f87ce;fill-opacity:1;fill-rule:nonzero;stroke:none"
             id="path919"
             inkscape:connector-curvature="0" /></g><g
           id="g921"
           transform="translate(544.9297,49.9279)"><path
             d="m 0,0 c -0.436,-0.6 -1.089,-0.9 -1.959,-0.9 -0.471,0 -0.899,0.1 -1.288,0.3 -0.388,0.2 -0.765,0.423 -1.129,0.67 -0.365,0.247 -0.729,0.477 -1.095,0.689 -0.365,0.212 -0.735,0.317 -1.111,0.317 -0.235,0 -0.453,-0.065 -0.653,-0.194 C -7.436,0.753 -7.605,0.588 -7.747,0.388 -7.888,0.187 -8.006,-0.029 -8.1,-0.265 -8.194,-0.5 -8.24,-0.724 -8.24,-0.936 h -0.953 c 0,0.354 0.064,0.707 0.193,1.059 0.13,0.354 0.312,0.683 0.548,0.988 0.234,0.306 0.512,0.553 0.829,0.742 0.317,0.188 0.652,0.282 1.006,0.282 0.424,0 0.841,-0.106 1.253,-0.318 0.411,-0.212 0.811,-0.441 1.2,-0.688 0.388,-0.247 0.758,-0.471 1.111,-0.67 0.353,-0.2 0.694,-0.3 1.024,-0.3 0.541,0 0.958,0.182 1.253,0.547 0.294,0.364 0.452,0.805 0.476,1.323 H 0.687 C 0.664,1.276 0.435,0.6 0,0 m 0.829,-21.369 v 11.67 c 0,1.697 -0.453,3.064 -1.358,4.102 -0.907,1.037 -2.23,1.556 -3.971,1.556 -1.012,0 -1.9,-0.194 -2.664,-0.583 -0.765,-0.39 -1.406,-0.914 -1.924,-1.574 -0.517,-0.66 -0.906,-1.415 -1.164,-2.264 -0.26,-0.849 -0.389,-1.744 -0.389,-2.686 v -10.221 h -1.482 v 18.176 h 1.482 v -4.201 c 0.471,1.53 1.283,2.682 2.436,3.459 1.152,0.776 2.505,1.164 4.059,1.164 1.999,0 3.575,-0.582 4.728,-1.747 1.152,-1.164 1.73,-2.747 1.73,-4.746 v -12.105 z"
             style="fill:#4f87ce;fill-opacity:1;fill-rule:nonzero;stroke:none"
             id="path923"
             inkscape:connector-curvature="0" /></g><g
           id="g925"
           transform="translate(565.7686,37.6466)"><path
             d="M 0,0 C 0,1.057 -0.147,2.077 -0.44,3.063 -0.735,4.05 -1.171,4.924 -1.746,5.687 -2.323,6.45 -3.041,7.065 -3.899,7.536 -4.759,8.006 -5.765,8.24 -6.917,8.24 -8.069,8.24 -9.082,8.006 -9.952,7.536 -10.822,7.065 -11.546,6.45 -12.122,5.687 -12.699,4.924 -13.128,4.05 -13.41,3.063 -13.692,2.077 -13.834,1.057 -13.834,0 c 0,-1.057 0.142,-2.078 0.424,-3.063 0.282,-0.987 0.711,-1.868 1.288,-2.642 0.576,-0.774 1.3,-1.392 2.17,-1.849 0.87,-0.458 1.883,-0.686 3.035,-0.686 1.152,0 2.158,0.228 3.018,0.686 0.858,0.457 1.576,1.075 2.153,1.849 0.575,0.774 1.011,1.655 1.306,2.642 C -0.147,-2.078 0,-1.057 0,0 M 1.482,-0.018 C 1.482,-1.266 1.3,-2.459 0.936,-3.6 0.57,-4.741 0.035,-5.753 -0.67,-6.635 -1.376,-7.518 -2.253,-8.218 -3.3,-8.734 c -1.047,-0.518 -2.253,-0.777 -3.617,-0.777 -1.389,0 -2.605,0.259 -3.652,0.777 -1.047,0.516 -1.924,1.216 -2.629,2.099 -0.706,0.882 -1.236,1.894 -1.588,3.035 -0.354,1.141 -0.53,2.334 -0.53,3.582 0,1.247 0.176,2.441 0.53,3.582 0.352,1.141 0.882,2.153 1.588,3.036 0.705,0.881 1.582,1.588 2.629,2.117 1.047,0.529 2.263,0.794 3.652,0.794 1.364,0 2.57,-0.265 3.617,-0.794 C -2.253,8.188 -1.376,7.481 -0.67,6.6 0.035,5.717 0.57,4.705 0.936,3.564 1.3,2.423 1.482,1.229 1.482,-0.018"
             style="fill:#4f87ce;fill-opacity:1;fill-rule:nonzero;stroke:none"
             id="path927"
             inkscape:connector-curvature="0" /></g><g
           id="g929"
           transform="translate(583.6963,33.3585)"><path
             d="m 0,0 c 0,-0.965 -0.211,-1.776 -0.633,-2.435 -0.422,-0.659 -0.963,-1.195 -1.624,-1.606 -0.66,-0.411 -1.401,-0.712 -2.224,-0.899 -0.825,-0.189 -1.648,-0.283 -2.471,-0.283 -2.354,0 -4.2,0.53 -5.541,1.588 -1.341,1.059 -2.012,2.729 -2.012,5.011 h 1.447 c 0,-1.858 0.541,-3.229 1.623,-4.111 1.082,-0.882 2.588,-1.324 4.518,-1.324 0.588,0 1.205,0.071 1.853,0.212 0.646,0.142 1.235,0.365 1.764,0.671 0.529,0.305 0.965,0.705 1.306,1.199 0.341,0.495 0.512,1.094 0.512,1.801 0,0.729 -0.165,1.323 -0.495,1.781 -0.33,0.459 -0.764,0.835 -1.305,1.13 -0.541,0.294 -1.177,0.53 -1.905,0.706 -0.73,0.176 -1.483,0.359 -2.259,0.547 -0.825,0.188 -1.618,0.382 -2.383,0.582 -0.765,0.2 -1.446,0.477 -2.047,0.829 -0.6,0.353 -1.076,0.818 -1.429,1.395 -0.352,0.576 -0.529,1.335 -0.529,2.276 0,0.587 0.132,1.164 0.397,1.729 0.265,0.564 0.666,1.07 1.201,1.517 0.534,0.448 1.208,0.806 2.019,1.077 0.812,0.27 1.771,0.406 2.876,0.406 1.012,0 1.936,-0.112 2.771,-0.335 0.835,-0.224 1.552,-0.566 2.152,-1.024 0.601,-0.459 1.071,-1.058 1.412,-1.799 0.341,-0.742 0.512,-1.619 0.512,-2.63 h -1.412 c 0,1.646 -0.506,2.841 -1.518,3.582 -1.012,0.741 -2.305,1.112 -3.882,1.112 -1.152,0 -2.064,-0.153 -2.734,-0.459 -0.671,-0.306 -1.177,-0.659 -1.518,-1.058 -0.341,-0.401 -0.559,-0.8 -0.653,-1.201 -0.095,-0.4 -0.141,-0.682 -0.141,-0.846 0,-0.825 0.23,-1.477 0.688,-1.959 0.459,-0.483 1.029,-0.865 1.712,-1.147 0.682,-0.283 1.411,-0.5 2.188,-0.653 C -6.987,5.229 -6.282,5.069 -5.646,4.905 -4.965,4.717 -4.282,4.518 -3.6,4.306 -2.918,4.094 -2.312,3.812 -1.782,3.459 -1.253,3.105 -0.824,2.652 -0.494,2.1 -0.165,1.547 0,0.847 0,0"
             style="fill:#4f87ce;fill-opacity:1;fill-rule:nonzero;stroke:none"
             id="path931"
             inkscape:connector-curvature="0" /></g><g
           id="g933"
           transform="translate(496.8086,27.3966)"><path
             d="m 0,0 v 77.417 h -0.656 c -1.885,0 -3.122,-0.329 -3.713,-0.985 -0.593,-0.659 -0.888,-1.666 -0.888,-3.024 l -6.309,3.22 c 0,1.096 0.086,2.169 0.261,3.22 0.176,1.053 0.56,1.994 1.152,2.828 0.59,0.83 1.433,1.499 2.529,2.004 1.096,0.503 2.541,0.756 4.339,0.756 H 9.53 V 0 Z"
             style="fill:#4f87ce;fill-opacity:1;fill-rule:nonzero;stroke:none"
             id="path935"
             inkscape:connector-curvature="0" /></g></g></g></g></svg>